<svg width="89" height="72" viewBox="0 0 89 72" fill="none" xmlns="http://www.w3.org/2000/svg">
<g clip-path="url(#clip0_236_1369)">
<path d="M36.1212 21.2986H32V25.4133H36.1212V21.2986Z" fill="#00C7FD"/>
<path d="M36.0136 42.7014V27.902H32.1084V42.7014H36.0136ZM61.896 42.8507V39.2255C61.3227 39.2255 60.8491 39.1923 60.4835 39.1342C60.0847 39.0679 59.7689 38.9351 59.5695 38.7278C59.3618 38.5204 59.2289 38.2217 59.1624 37.8401C59.1042 37.4751 59.071 36.994 59.071 36.4133V31.2368H61.896V27.902H59.071V22.1448H55.1658V36.4465C55.1658 37.6493 55.2738 38.678 55.4815 39.4992C55.6892 40.3039 56.0382 40.9676 56.5201 41.4653C57.0021 41.963 57.6502 42.3198 58.4229 42.5354C59.2122 42.7511 60.2093 42.859 61.3975 42.859H61.896V42.8507ZM84.2721 42.7014V21H80.3669V42.7014H84.2721ZM51.4018 29.362C50.3217 28.1923 48.7928 27.6033 46.8568 27.6033C45.9262 27.6033 45.0621 27.7941 44.2977 28.1757C43.5332 28.5573 42.8768 29.0882 42.3617 29.7519L42.1456 30.0256V29.7768V27.902H38.2903V42.7014H42.1706V34.8205V35.368C42.1706 35.2768 42.1706 35.1855 42.1706 35.1026C42.2121 33.7172 42.5528 32.6885 43.2009 32.0332C43.8905 31.3364 44.7214 30.9796 45.6769 30.9796C46.807 30.9796 47.6628 31.3281 48.2361 32C48.7928 32.6637 49.0753 33.6176 49.0836 34.8371V34.8703V34.8786V42.7014H53.0221V34.3062C53.0304 32.1908 52.482 30.5317 51.4018 29.362ZM78.3312 35.2768C78.3312 34.2149 78.1401 33.2112 77.7662 32.2821C77.3923 31.3612 76.8605 30.54 76.1958 29.8348C75.5311 29.138 74.7168 28.5822 73.7779 28.1923C72.8473 27.8024 71.8003 27.6033 70.6786 27.6033C69.6151 27.6033 68.6014 27.8107 67.6708 28.2089C66.7319 28.6154 65.9093 29.1629 65.2196 29.8514C64.53 30.54 63.9733 31.3612 63.5745 32.2986C63.1673 33.2278 62.9679 34.2398 62.9679 35.3017C62.9679 36.3635 63.159 37.3756 63.5495 38.3047C63.9317 39.2421 64.4718 40.0633 65.1532 40.7436C65.8345 41.4321 66.6654 41.9879 67.6292 42.3861C68.5931 42.7926 69.6649 42.9917 70.8033 42.9917C74.1102 42.9917 76.1708 41.4902 77.4006 40.0882L74.5921 37.948C74.0022 38.6531 72.598 39.5988 70.8365 39.5988C69.7314 39.5988 68.8257 39.3416 68.1444 38.8439C67.4547 38.3379 66.9811 37.6493 66.7319 36.7866L66.6903 36.6456H78.3312V35.2768ZM66.7236 33.9163C66.7236 32.8296 67.9699 30.9382 70.6537 30.9382C73.3375 30.9382 74.5838 32.8296 74.5838 33.908L66.7236 33.9163Z" fill="white"/>
<path d="M88.7166 40.8348C88.6418 40.6606 88.5338 40.5113 88.4092 40.3786C88.2762 40.2458 88.1267 40.1463 87.9522 40.0716C87.7777 39.997 87.5866 39.9555 87.3872 39.9555C87.1878 39.9555 86.9967 39.997 86.8222 40.0716C86.6477 40.1463 86.4981 40.2541 86.3652 40.3786C86.2322 40.5113 86.1325 40.6606 86.0577 40.8348C85.983 41.009 85.9414 41.1998 85.9414 41.3989C85.9414 41.598 85.983 41.7888 86.0577 41.963C86.1325 42.1372 86.2405 42.2865 86.3652 42.4193C86.4981 42.552 86.6477 42.6516 86.8222 42.7262C86.9967 42.8009 87.1878 42.8424 87.3872 42.8424C87.5866 42.8424 87.7777 42.8009 87.9522 42.7262C88.1267 42.6516 88.2762 42.5437 88.4092 42.4193C88.5421 42.2865 88.6418 42.1372 88.7166 41.963C88.7914 41.7888 88.8329 41.598 88.8329 41.3989C88.8329 41.1998 88.7914 41.0173 88.7166 40.8348ZM88.484 41.8635C88.4258 42.0045 88.3344 42.1372 88.2264 42.2451C88.1184 42.3529 87.9937 42.4359 87.8442 42.5022C87.7029 42.5603 87.545 42.5935 87.3789 42.5935C87.2127 42.5935 87.0631 42.5603 86.9136 42.5022C86.7723 42.4442 86.6394 42.3529 86.5313 42.2451C86.4233 42.1372 86.3402 42.0128 86.2738 41.8635C86.2156 41.7224 86.1824 41.5648 86.1824 41.3989C86.1824 41.233 86.2156 41.0837 86.2738 40.9344C86.3319 40.7933 86.4233 40.6606 86.5313 40.5528C86.6394 40.4449 86.764 40.362 86.9136 40.2956C87.0548 40.2375 87.2127 40.2043 87.3789 40.2043C87.545 40.2043 87.6946 40.2375 87.8442 40.2956C87.9854 40.3537 88.1184 40.4449 88.2264 40.5528C88.3344 40.6606 88.4175 40.785 88.484 40.9344C88.5421 41.0754 88.5754 41.233 88.5754 41.3989C88.5754 41.5648 88.5421 41.7141 88.484 41.8635ZM87.6614 41.5151C87.7777 41.4985 87.8691 41.457 87.9439 41.3906C88.0187 41.316 88.0519 41.2081 88.0519 41.0671C88.0519 40.9095 88.002 40.785 87.9106 40.7021C87.8192 40.6191 87.6697 40.5776 87.4703 40.5776H86.8305V42.2285H87.1296V41.5565H87.3539L87.7694 42.2285H88.0851L87.6614 41.5151ZM87.4952 41.2745C87.4453 41.2745 87.4038 41.2828 87.3539 41.2828H87.1296V40.8182H87.3539C87.4038 40.8182 87.4453 40.8182 87.4952 40.8182C87.545 40.8182 87.5866 40.8265 87.6198 40.8431C87.6614 40.8597 87.6863 40.8846 87.7112 40.9095C87.7362 40.9427 87.7445 40.9841 87.7445 41.0339C87.7445 41.0837 87.7362 41.1335 87.7112 41.1583C87.6863 41.1915 87.6614 41.2164 87.6198 41.2247C87.5866 41.2662 87.545 41.2745 87.4952 41.2745Z" fill="white"/>
</g>
<defs>
<clipPath id="clip0_236_1369">
<rect width="88.8333" height="80" fill="white" transform="translate(0 -8)"/>
</clipPath>
</defs>
</svg>
