<svg width="32" height="32" viewBox="0 0 32 32" fill="none" xmlns="http://www.w3.org/2000/svg">
<rect width="32" height="32" fill="#0054AE"/>
<path fill-rule="evenodd" clip-rule="evenodd" d="M9 11V21C9 21.264 9.10232 21.5042 9.26947 21.6829C9.45197 21.878 9.71174 22 10 22H22C22.2883 22 22.548 21.878 22.7305 21.6829C22.8977 21.5042 23 21.264 23 21V13C23 12.736 22.8977 12.4958 22.7305 12.3171C22.548 12.122 22.2883 12 22 12H16.4464L15.4369 10.2514C15.3436 10.0898 15.1741 9.99951 15 10H10C9.71621 10 9.46002 10.1182 9.27801 10.3081C9.10581 10.4877 9 10.7315 9 11ZM10 21H22V13H16.1602C15.9845 13.0021 15.8129 12.9117 15.7188 12.7488L14.7108 11.0028L10 11V21Z" fill="white"/>
</svg>
