<svg width="24" height="24" viewBox="0 0 24 24" fill="none" xmlns="http://www.w3.org/2000/svg">
<g clip-path="url(#clip0_790_17120)">
<path d="M6.25 6H9.39645C9.61917 6 9.73071 6.26929 9.57322 6.42678L8.35355 7.64645L9.83793 9.13082L9.13082 9.83793L7.64645 8.35355L6.42678 9.57322C6.26928 9.73072 6 9.61917 6 9.39645V6.25C6 6.11193 6.11193 6 6.25 6Z" fill="#2B2C30"/>
<path d="M6.25 18H9.39645C9.61917 18 9.73071 17.7307 9.57322 17.5732L8.35355 16.3536L9.83793 14.8692L9.13082 14.1621L7.64645 15.6464L6.42678 14.4268C6.26928 14.2693 6 14.3808 6 14.6036V17.75C6 17.8881 6.11193 18 6.25 18Z" fill="#2B2C30"/>
<path d="M14.6036 6H17.75C17.8881 6 18 6.11193 18 6.25V9.39645C18 9.61917 17.7307 9.73072 17.5732 9.57322L16.3536 8.35355L14.8692 9.83793L14.1621 9.13082L15.6464 7.64645L14.4268 6.42678C14.2693 6.26929 14.3808 6 14.6036 6Z" fill="#2B2C30"/>
<path d="M17.75 18H14.6036C14.3808 18 14.2693 17.7307 14.4268 17.5732L15.6464 16.3536L14.1621 14.8692L14.8692 14.1621L16.3536 15.6464L17.5732 14.4268C17.7307 14.2693 18 14.3808 18 14.6036V17.75C18 17.8881 17.8881 18 17.75 18Z" fill="#2B2C30"/>
</g>
<defs>
<clipPath id="clip0_790_17120">
<rect width="24" height="24" fill="white"/>
</clipPath>
</defs>
</svg>
