<svg width="12" height="10" viewBox="0 0 12 10" fill="none" xmlns="http://www.w3.org/2000/svg">
<path d="M0 4.25C0 4.11193 0.111929 4 0.25 4H11.75C11.8881 4 12 4.11193 12 4.25V5.25C12 5.38807 11.8881 5.5 11.75 5.5H0.25C0.111929 5.5 0 5.38807 0 5.25V4.25Z" fill="white"/>
<path d="M0 8.25C0 8.11193 0.111929 8 0.25 8H11.75C11.8881 8 12 8.11193 12 8.25V9.25C12 9.38807 11.8881 9.5 11.75 9.5H0.25C0.111929 9.5 0 9.38807 0 9.25V8.25Z" fill="white"/>
<path d="M0 0.25C0 0.111929 0.111929 0 0.25 0H11.75C11.8881 0 12 0.111929 12 0.25V1.25C12 1.38807 11.8881 1.5 11.75 1.5H0.25C0.111929 1.5 0 1.38807 0 1.25V0.25Z" fill="white"/>
</svg>
