<!-- src/assets/images/minimize.svg -->
<svg width="24" height="24" viewBox="0 0 24 24" fill="none" xmlns="http://www.w3.org/2000/svg">
<path d="M8 8H4.60355C4.38083 8 4.26929 7.73071 4.42678 7.57322L5.64645 6.35355L4.16207 4.86918L4.86918 4.16207L6.35355 5.64645L7.57322 4.42678C7.73072 4.26928 8 4.38083 8 4.60355V8Z" fill="#2B2C30"/>
<path d="M8 16H4.60355C4.38083 16 4.26929 16.2693 4.42678 16.4268L5.64645 17.6464L4.16207 19.1308L4.86918 19.8379L6.35355 18.3536L7.57322 19.5732C7.73072 19.7307 8 19.6192 8 19.3964V16Z" fill="#2B2C30"/>
<path d="M19.3964 8H16V4.60355C16 4.38083 16.2693 4.26929 16.4268 4.42678L17.6464 5.64645L19.1308 4.16207L19.8379 4.86918L18.3536 6.35355L19.5732 7.57322C19.7307 7.73071 19.6192 8 19.3964 8Z" fill="#2B2C30"/>
<path d="M16 19.3964V16H19.3964C19.6192 16 19.7307 16.2693 19.5732 16.4268L18.3536 17.6464L19.8379 19.1308L19.1308 19.8379L17.6464 18.3536L16.4268 19.5732C16.2693 19.7307 16 19.6192 16 19.3964Z" fill="#2B2C30"/>
</svg>