<svg width="64" height="64" viewBox="0 0 64 64" fill="none" xmlns="http://www.w3.org/2000/svg">
<path fill-rule="evenodd" clip-rule="evenodd" d="M4 8H16V11C16 11.5523 16.4477 12 17 12H47C47.5523 12 48 11.5523 48 11V8H60V56H56V52H52V56H48V53.4C48 52.6268 47.5523 52 47 52H17C16.4477 52 16 52.6268 16 53.4V56H12V52H8V56H4V8ZM47 16.875H17C16.4477 16.875 16 17.5718 16 18.4312V46.4437C16 47.3032 16.4477 48 17 48H47C47.5523 48 48 47.3032 48 46.4437V18.4312C48 17.5718 47.5523 16.875 47 16.875ZM12 20H8V24H12V20ZM8 12H12V16H8V12ZM12 28H8V32H12V28ZM8 36H12V40H8V36ZM12 44H8V48H12V44ZM52 20H56V24H52V20ZM56 12H52V16H56V12ZM52 28H56V32H52V28ZM56 36H52V40H56V36ZM52 44H56V48H52V44ZM24.4736 43.8264C24.1964 43.6429 24 43.33 24 42.9665V21.024C24 20.667 24.2207 20.3477 24.519 20.164C24.8401 19.9662 25.2512 19.9255 25.5735 20.164L42.4095 31.1354C42.7106 31.3334 42.8748 31.6779 42.875 32.009C42.8752 32.3393 42.7121 32.6562 42.4095 32.8553L25.5735 43.8264C25.2175 44.0774 24.7922 44.0375 24.4736 43.8264ZM28 37.4709V26.5196L36.4026 31.9953L28 37.4709Z" fill="#2B2C30"/>
</svg>
