<svg width="106" height="24" viewBox="0 0 106 24" fill="none" xmlns="http://www.w3.org/2000/svg">
<mask id="mask0_782_11688" style="mask-type:alpha" maskUnits="userSpaceOnUse" x="0" y="5" width="24" height="14">
<path d="M17.25 5H6.75C3.02 5 0 8.02 0 11.75V12.25C0 15.98 3.02 19 6.75 19H17.25C20.98 19 24 15.98 24 12.25V11.75C24 8.02 20.98 5 17.25 5ZM17 17C14.24 17 12 14.76 12 12C12 9.24 14.24 7 17 7C19.76 7 22 9.24 22 12C22 14.76 19.76 17 17 17Z" fill="#2B2C30"/>
</mask>
<g mask="url(#mask0_782_11688)">
<rect width="106" height="24" fill="#0054AE"/>
</g>
<path d="M39.408 17H37.924L34.928 13.038H32.534V17H31.288V7.2H35.572C37.882 7.2 39.142 8.348 39.142 9.986C39.142 11.4 38.218 12.548 36.202 12.856L39.408 17ZM35.544 8.208H32.534V12.044H35.068C36.902 12.044 37.882 11.218 37.882 10.098C37.882 8.95 37.07 8.208 35.544 8.208ZM44.0981 17.238C42.0961 17.238 40.5841 15.656 40.5841 13.598C40.5841 11.596 42.1101 10 44.1401 10C46.1421 10 47.6541 11.568 47.6541 13.64C47.6541 15.642 46.1281 17.238 44.0981 17.238ZM44.1261 16.258C45.4421 16.258 46.4501 15.152 46.4501 13.626C46.4501 12.1 45.4281 10.966 44.1121 10.966C42.7961 10.966 41.7881 12.086 41.7881 13.612C41.7881 15.138 42.8101 16.258 44.1261 16.258ZM52.5063 17.238C50.5043 17.238 48.9923 15.656 48.9923 13.598C48.9923 11.596 50.5183 10 52.5483 10C54.5503 10 56.0623 11.568 56.0623 13.64C56.0623 15.642 54.5363 17.238 52.5063 17.238ZM52.5343 16.258C53.8503 16.258 54.8583 15.152 54.8583 13.626C54.8583 12.1 53.8363 10.966 52.5203 10.966C51.2043 10.966 50.1963 12.086 50.1963 13.612C50.1963 15.138 51.2183 16.258 52.5343 16.258ZM58.9265 10.238V11.61C59.4025 10.63 60.2705 10.07 61.3065 10.07C62.5105 10.07 63.3085 10.7 63.6585 11.694C64.1345 10.644 65.0585 10.07 66.1925 10.07C67.8445 10.07 68.7405 11.246 68.7405 12.898V17H67.5505V12.968C67.5505 11.82 66.9905 11.036 65.8705 11.036C64.6665 11.036 63.8405 12.142 63.8405 13.696V17H62.6645V12.968C62.6645 11.82 62.0905 11.036 60.9845 11.036C59.7665 11.036 58.9545 12.142 58.9545 13.696V17H57.7645V10.238H58.9265ZM72.7625 7.2H74.1485L77.7465 15.908L81.3305 7.2H82.6465L78.5025 17.042H76.9205L72.7625 7.2ZM85.3855 7.312V8.586H84.0555V7.312H85.3855ZM84.1255 10.238H85.3155V17H84.1255V10.238ZM90.6518 16.314C91.4918 16.314 92.2478 15.992 92.9198 15.25L93.5498 15.894C92.7798 16.776 91.8138 17.238 90.5538 17.238C88.4818 17.238 87.0958 15.768 87.0958 13.612C87.0958 11.54 88.6638 10 90.5538 10C92.3878 10 93.7878 11.316 93.7878 13.486C93.7878 13.682 93.7738 13.836 93.7598 13.948H88.2578C88.3978 15.418 89.4338 16.314 90.6518 16.314ZM90.5538 10.91C89.4338 10.91 88.4538 11.75 88.2718 13.15H92.6398C92.5138 11.666 91.6178 10.91 90.5538 10.91ZM103.284 17H101.898L99.9802 11.288L98.0342 17H96.6482L94.8702 10.238H96.0322L97.4322 15.992L99.3362 10.238H100.652L102.556 15.95L103.942 10.238H105.09L103.284 17Z" fill="#2B2C30"/>
</svg>
